<svg width="143" height="66" viewBox="0 0 143 66" fill="none" xmlns="http://www.w3.org/2000/svg">
<path d="M4.28125 36.0469H8.98438V22.5469C8.98438 22.026 9 21.4792 9.03125 20.9062L5.70312 23.6875C5.55729 23.8021 5.41146 23.8802 5.26562 23.9219C5.13021 23.9635 4.98958 23.9844 4.84375 23.9844C4.63542 23.9844 4.44271 23.9427 4.26562 23.8594C4.08854 23.7656 3.95833 23.6615 3.875 23.5469L2.625 21.8281L9.6875 15.8281H12.9219V36.0469H17.0938V39H4.28125V36.0469ZM31.7075 15.6094C32.7804 15.6094 33.7596 15.7656 34.645 16.0781C35.5304 16.3906 36.2856 16.8385 36.9106 17.4219C37.546 17.9948 38.0356 18.6875 38.3794 19.5C38.7335 20.3125 38.9106 21.2135 38.9106 22.2031C38.9106 23.0573 38.7856 23.849 38.5356 24.5781C38.2856 25.2969 37.9471 25.9896 37.52 26.6562C37.1033 27.3125 36.6138 27.9531 36.0513 28.5781C35.4888 29.1927 34.895 29.8177 34.27 30.4531L29.0513 35.7812C29.5721 35.6354 30.0773 35.5208 30.5669 35.4375C31.0565 35.3542 31.5252 35.3125 31.9731 35.3125H37.9106C38.3377 35.3125 38.6763 35.4375 38.9263 35.6875C39.1763 35.9271 39.3013 36.2396 39.3013 36.625V39H23.4263V37.6875C23.4263 37.4167 23.4835 37.1406 23.5981 36.8594C23.7127 36.5677 23.8898 36.3021 24.1294 36.0625L31.1606 29.0156C31.744 28.4219 32.2648 27.8542 32.7231 27.3125C33.1919 26.7604 33.5825 26.2188 33.895 25.6875C34.2075 25.1562 34.4471 24.6146 34.6138 24.0625C34.7804 23.5104 34.8638 22.9323 34.8638 22.3281C34.8638 21.776 34.7804 21.2917 34.6138 20.875C34.4575 20.4479 34.2283 20.0938 33.9263 19.8125C33.6346 19.5208 33.2804 19.3021 32.8638 19.1562C32.4575 19.0104 31.9992 18.9375 31.4888 18.9375C30.5408 18.9375 29.7596 19.1771 29.145 19.6562C28.5304 20.1354 28.1033 20.7812 27.8638 21.5938C27.7388 22 27.5565 22.2917 27.3169 22.4688C27.0877 22.6458 26.796 22.7344 26.4419 22.7344C26.2752 22.7344 26.0981 22.7188 25.9106 22.6875L23.8325 22.3125C23.9888 21.1979 24.296 20.224 24.7544 19.3906C25.2127 18.5573 25.7856 17.8594 26.4731 17.2969C27.1606 16.7344 27.9471 16.3125 28.8325 16.0312C29.7283 15.75 30.6867 15.6094 31.7075 15.6094ZM65.509 39H59.973L54.661 30.36L49.349 39H44.165L51.749 27.224L44.645 16.152H49.989L54.917 24.376L59.749 16.152H64.965L57.797 27.48L65.509 39Z" fill="#39C0ED"/>
<path d="M79.2047 16.152C82.1487 16.152 84.2927 16.792 85.6367 18.072C87.0021 19.3307 87.6847 21.0693 87.6847 23.288C87.6847 24.2907 87.5354 25.2507 87.2367 26.168C86.9381 27.064 86.4367 27.8747 85.7327 28.6C85.0501 29.304 84.1434 29.8587 83.0127 30.264C81.8821 30.6693 80.4847 30.872 78.8207 30.872H76.7407V39H71.9087V16.152H79.2047ZM78.9487 20.12H76.7407V26.904H78.3407C79.2581 26.904 80.0474 26.7867 80.7087 26.552C81.3701 26.3173 81.8821 25.944 82.2447 25.432C82.6074 24.92 82.7887 24.2587 82.7887 23.448C82.7887 22.3173 82.4794 21.4853 81.8607 20.952C81.2421 20.3973 80.2714 20.12 78.9487 20.12ZM102.179 16.152C104.248 16.152 105.955 16.408 107.299 16.92C108.643 17.4107 109.645 18.168 110.307 19.192C110.968 20.1947 111.299 21.464 111.299 23C111.299 24.0453 111.096 24.9627 110.691 25.752C110.307 26.52 109.784 27.1813 109.123 27.736C108.483 28.2693 107.789 28.7067 107.043 29.048L113.763 39H108.387L102.947 30.232H100.355V39H95.5225V16.152H102.179ZM101.827 20.12H100.355V26.296H101.923C102.989 26.296 103.853 26.1787 104.515 25.944C105.176 25.7093 105.656 25.3573 105.955 24.888C106.253 24.3973 106.403 23.8107 106.403 23.128C106.403 22.4027 106.232 21.8267 105.891 21.4C105.571 20.952 105.069 20.632 104.387 20.44C103.725 20.2267 102.872 20.12 101.827 20.12ZM140.903 27.544C140.903 29.3147 140.679 30.9253 140.231 32.376C139.805 33.8053 139.143 35.0427 138.247 36.088C137.373 37.1333 136.242 37.9333 134.855 38.488C133.49 39.0427 131.879 39.32 130.023 39.32C128.167 39.32 126.546 39.0427 125.159 38.488C123.794 37.912 122.663 37.112 121.767 36.088C120.893 35.0427 120.231 33.7947 119.783 32.344C119.357 30.8933 119.143 29.2827 119.143 27.512C119.143 25.144 119.527 23.0853 120.295 21.336C121.085 19.5867 122.279 18.232 123.879 17.272C125.501 16.2907 127.559 15.8 130.055 15.8C132.53 15.8 134.567 16.2907 136.167 17.272C137.767 18.232 138.951 19.5973 139.719 21.368C140.509 23.1173 140.903 25.176 140.903 27.544ZM124.231 27.544C124.231 29.144 124.434 30.52 124.839 31.672C125.245 32.824 125.874 33.7093 126.727 34.328C127.581 34.9467 128.679 35.256 130.023 35.256C131.41 35.256 132.519 34.9467 133.351 34.328C134.205 33.7093 134.823 32.824 135.207 31.672C135.613 30.52 135.816 29.144 135.816 27.544C135.816 25.1333 135.367 23.2453 134.471 21.88C133.575 20.5147 132.103 19.832 130.055 19.832C128.69 19.832 127.581 20.1413 126.727 20.76C125.874 21.3787 125.245 22.264 124.839 23.416C124.434 24.568 124.231 25.944 124.231 27.544Z" fill="white"/>
<path d="M19.028 53.326C19.028 53.9233 18.8833 54.432 18.594 54.852C18.3047 55.2627 17.8893 55.58 17.348 55.804C16.816 56.028 16.186 56.14 15.458 56.14C15.0847 56.14 14.7253 56.1213 14.38 56.084C14.044 56.0467 13.736 55.9953 13.456 55.93C13.176 55.8553 12.9287 55.7667 12.714 55.664V54.46C13.05 54.6093 13.4653 54.7447 13.96 54.866C14.464 54.9873 14.982 55.048 15.514 55.048C16.0087 55.048 16.424 54.9827 16.76 54.852C17.096 54.7213 17.348 54.5347 17.516 54.292C17.684 54.0493 17.768 53.7647 17.768 53.438C17.768 53.1113 17.698 52.836 17.558 52.612C17.418 52.388 17.1753 52.1827 16.83 51.996C16.494 51.8 16.0227 51.5947 15.416 51.38C14.9867 51.2213 14.6087 51.0533 14.282 50.876C13.9647 50.6893 13.6987 50.4793 13.484 50.246C13.2693 50.0127 13.106 49.7467 12.994 49.448C12.8913 49.1493 12.84 48.804 12.84 48.412C12.84 47.88 12.9753 47.4273 13.246 47.054C13.5167 46.6713 13.89 46.3773 14.366 46.172C14.8513 45.9667 15.4067 45.864 16.032 45.864C16.5827 45.864 17.0867 45.9153 17.544 46.018C18.0013 46.1207 18.4167 46.256 18.79 46.424L18.398 47.502C18.0527 47.3527 17.6747 47.2267 17.264 47.124C16.8627 47.0213 16.4427 46.97 16.004 46.97C15.584 46.97 15.234 47.0307 14.954 47.152C14.674 47.2733 14.464 47.446 14.324 47.67C14.184 47.8847 14.114 48.1367 14.114 48.426C14.114 48.762 14.184 49.042 14.324 49.266C14.464 49.49 14.6927 49.6907 15.01 49.868C15.3273 50.0453 15.7567 50.2367 16.298 50.442C16.886 50.6567 17.3807 50.89 17.782 51.142C18.1927 51.3847 18.5007 51.6787 18.706 52.024C18.9207 52.3693 19.028 52.8033 19.028 53.326ZM24.4436 48.356C25.3676 48.356 26.1096 48.678 26.6696 49.322C27.2389 49.966 27.5236 50.9367 27.5236 52.234C27.5236 53.0833 27.3929 53.802 27.1316 54.39C26.8796 54.9687 26.5203 55.4073 26.0536 55.706C25.5963 55.9953 25.0549 56.14 24.4296 56.14C24.0469 56.14 23.7063 56.0887 23.4076 55.986C23.1089 55.8833 22.8523 55.7527 22.6376 55.594C22.4323 55.426 22.2549 55.244 22.1056 55.048H22.0216C22.0403 55.2067 22.0589 55.4073 22.0776 55.65C22.0963 55.8927 22.1056 56.1027 22.1056 56.28V59.36H20.8736V48.496H21.8816L22.0496 49.518H22.1056C22.2549 49.3033 22.4323 49.1073 22.6376 48.93C22.8523 48.7527 23.1043 48.6127 23.3936 48.51C23.6923 48.4073 24.0423 48.356 24.4436 48.356ZM24.2196 49.392C23.7156 49.392 23.3096 49.49 23.0016 49.686C22.6936 49.8727 22.4696 50.1573 22.3296 50.54C22.1896 50.9227 22.1149 51.408 22.1056 51.996V52.234C22.1056 52.85 22.1709 53.3727 22.3016 53.802C22.4323 54.2313 22.6516 54.558 22.9596 54.782C23.2769 55.006 23.7063 55.118 24.2476 55.118C24.7049 55.118 25.0783 54.992 25.3676 54.74C25.6663 54.488 25.8856 54.1473 26.0256 53.718C26.1749 53.2793 26.2496 52.78 26.2496 52.22C26.2496 51.3613 26.0816 50.6753 25.7456 50.162C25.4189 49.6487 24.9103 49.392 24.2196 49.392ZM36.0109 52.234C36.0109 52.8593 35.9269 53.4147 35.7589 53.9C35.6002 54.376 35.3669 54.782 35.0589 55.118C34.7602 55.454 34.3915 55.7107 33.9529 55.888C33.5235 56.056 33.0429 56.14 32.5109 56.14C32.0162 56.14 31.5589 56.056 31.1389 55.888C30.7189 55.7107 30.3549 55.454 30.0469 55.118C29.7389 54.782 29.4962 54.376 29.3189 53.9C29.1509 53.4147 29.0669 52.8593 29.0669 52.234C29.0669 51.4033 29.2069 50.7033 29.4869 50.134C29.7669 49.5553 30.1682 49.1167 30.6909 48.818C31.2135 48.51 31.8342 48.356 32.5529 48.356C33.2342 48.356 33.8315 48.51 34.3449 48.818C34.8675 49.1167 35.2735 49.5553 35.5629 50.134C35.8615 50.7033 36.0109 51.4033 36.0109 52.234ZM30.3409 52.234C30.3409 52.822 30.4155 53.3353 30.5649 53.774C30.7235 54.2033 30.9662 54.5347 31.2929 54.768C31.6195 55.0013 32.0349 55.118 32.5389 55.118C33.0429 55.118 33.4582 55.0013 33.7849 54.768C34.1115 54.5347 34.3495 54.2033 34.4989 53.774C34.6575 53.3353 34.7369 52.822 34.7369 52.234C34.7369 51.6367 34.6575 51.128 34.4989 50.708C34.3402 50.288 34.0975 49.966 33.7709 49.742C33.4535 49.5087 33.0382 49.392 32.5249 49.392C31.7595 49.392 31.2042 49.644 30.8589 50.148C30.5135 50.652 30.3409 51.3473 30.3409 52.234ZM41.4634 48.356C41.6034 48.356 41.7528 48.3653 41.9114 48.384C42.0794 48.3933 42.2241 48.412 42.3454 48.44L42.1914 49.574C42.0701 49.546 41.9348 49.5227 41.7854 49.504C41.6454 49.4853 41.5101 49.476 41.3794 49.476C41.0901 49.476 40.8148 49.5367 40.5534 49.658C40.2921 49.7793 40.0588 49.952 39.8534 50.176C39.6481 50.3907 39.4848 50.652 39.3634 50.96C39.2514 51.268 39.1954 51.6133 39.1954 51.996V56H37.9634V48.496H38.9714L39.1114 49.868H39.1674C39.3261 49.588 39.5174 49.336 39.7414 49.112C39.9654 48.8787 40.2221 48.6967 40.5114 48.566C40.8008 48.426 41.1181 48.356 41.4634 48.356ZM46.2526 55.132C46.4393 55.132 46.6306 55.118 46.8266 55.09C47.0226 55.0527 47.1813 55.0153 47.3026 54.978V55.916C47.172 55.9813 46.9853 56.0327 46.7426 56.07C46.5 56.1167 46.2666 56.14 46.0426 56.14C45.6506 56.14 45.2866 56.0747 44.9506 55.944C44.624 55.804 44.358 55.566 44.1526 55.23C43.9473 54.894 43.8446 54.4227 43.8446 53.816V49.448H42.7806V48.86L43.8586 48.37L44.3486 46.774H45.0766V48.496H47.2466V49.448H45.0766V53.788C45.0766 54.2453 45.184 54.586 45.3986 54.81C45.6226 55.0247 45.9073 55.132 46.2526 55.132ZM55.466 46.004C56.2966 46.004 56.992 46.0833 57.552 46.242C58.1213 46.4007 58.546 46.662 58.826 47.026C59.1153 47.39 59.26 47.8753 59.26 48.482C59.26 48.874 59.1853 49.224 59.036 49.532C58.896 49.8307 58.6813 50.0827 58.392 50.288C58.112 50.484 57.7666 50.6193 57.356 50.694V50.764C57.776 50.8293 58.154 50.9507 58.49 51.128C58.8353 51.3053 59.106 51.5573 59.302 51.884C59.498 52.2107 59.596 52.6353 59.596 53.158C59.596 53.7647 59.456 54.2827 59.176 54.712C58.896 55.132 58.4946 55.454 57.972 55.678C57.4586 55.8927 56.8426 56 56.124 56H52.61V46.004H55.466ZM55.718 50.26C56.5766 50.26 57.1646 50.1247 57.482 49.854C57.7993 49.574 57.958 49.1633 57.958 48.622C57.958 48.0713 57.762 47.6793 57.37 47.446C56.9873 47.2033 56.3713 47.082 55.522 47.082H53.87V50.26H55.718ZM53.87 51.31V54.936H55.886C56.7726 54.936 57.3886 54.7633 57.734 54.418C58.0793 54.0727 58.252 53.62 58.252 53.06C58.252 52.7053 58.1726 52.3973 58.014 52.136C57.8646 51.8747 57.608 51.674 57.244 51.534C56.8893 51.3847 56.404 51.31 55.788 51.31H53.87ZM64.4454 48.356C65.0894 48.356 65.6401 48.496 66.0974 48.776C66.5641 49.056 66.9188 49.4527 67.1614 49.966C67.4134 50.47 67.5394 51.0627 67.5394 51.744V52.486H62.4014C62.4201 53.3353 62.6348 53.984 63.0454 54.432C63.4654 54.8707 64.0488 55.09 64.7954 55.09C65.2714 55.09 65.6914 55.048 66.0554 54.964C66.4288 54.8707 66.8114 54.74 67.2034 54.572V55.65C66.8208 55.818 66.4428 55.9393 66.0694 56.014C65.6961 56.098 65.2528 56.14 64.7394 56.14C64.0301 56.14 63.4001 55.9953 62.8494 55.706C62.3081 55.4167 61.8834 54.9873 61.5754 54.418C61.2768 53.8393 61.1274 53.1347 61.1274 52.304C61.1274 51.4827 61.2628 50.778 61.5334 50.19C61.8134 49.602 62.2008 49.1493 62.6954 48.832C63.1994 48.5147 63.7828 48.356 64.4454 48.356ZM64.4314 49.364C63.8434 49.364 63.3768 49.5553 63.0314 49.938C62.6954 50.3113 62.4948 50.834 62.4294 51.506H66.2514C66.2514 51.0767 66.1861 50.7033 66.0554 50.386C65.9248 50.0687 65.7241 49.8213 65.4534 49.644C65.1921 49.4573 64.8514 49.364 64.4314 49.364ZM71.9558 55.132C72.1424 55.132 72.3338 55.118 72.5298 55.09C72.7258 55.0527 72.8844 55.0153 73.0058 54.978V55.916C72.8751 55.9813 72.6884 56.0327 72.4458 56.07C72.2031 56.1167 71.9698 56.14 71.7458 56.14C71.3538 56.14 70.9898 56.0747 70.6538 55.944C70.3271 55.804 70.0611 55.566 69.8558 55.23C69.6504 54.894 69.5478 54.4227 69.5478 53.816V49.448H68.4838V48.86L69.5618 48.37L70.0518 46.774H70.7798V48.496H72.9498V49.448H70.7798V53.788C70.7798 54.2453 70.8871 54.586 71.1018 54.81C71.3258 55.0247 71.6104 55.132 71.9558 55.132ZM77.0144 55.132C77.201 55.132 77.3924 55.118 77.5884 55.09C77.7844 55.0527 77.943 55.0153 78.0644 54.978V55.916C77.9337 55.9813 77.747 56.0327 77.5044 56.07C77.2617 56.1167 77.0284 56.14 76.8044 56.14C76.4124 56.14 76.0484 56.0747 75.7124 55.944C75.3857 55.804 75.1197 55.566 74.9144 55.23C74.709 54.894 74.6064 54.4227 74.6064 53.816V49.448H73.5424V48.86L74.6204 48.37L75.1104 46.774H75.8384V48.496H78.0084V49.448H75.8384V53.788C75.8384 54.2453 75.9457 54.586 76.1604 54.81C76.3844 55.0247 76.669 55.132 77.0144 55.132ZM80.799 48.496V56H79.567V48.496H80.799ZM80.197 45.682C80.3836 45.682 80.547 45.7473 80.687 45.878C80.8363 45.9993 80.911 46.1953 80.911 46.466C80.911 46.7273 80.8363 46.9233 80.687 47.054C80.547 47.1847 80.3836 47.25 80.197 47.25C79.9916 47.25 79.819 47.1847 79.679 47.054C79.539 46.9233 79.469 46.7273 79.469 46.466C79.469 46.1953 79.539 45.9993 79.679 45.878C79.819 45.7473 79.9916 45.682 80.197 45.682ZM86.7883 48.356C87.6843 48.356 88.361 48.5753 88.8183 49.014C89.2757 49.4433 89.5043 50.1433 89.5043 51.114V56H88.2863V51.198C88.2863 50.5913 88.151 50.1387 87.8803 49.84C87.6097 49.5413 87.185 49.392 86.6063 49.392C85.7757 49.392 85.2017 49.6253 84.8843 50.092C84.567 50.5587 84.4083 51.2307 84.4083 52.108V56H83.1763V48.496H84.1703L84.3523 49.518H84.4223C84.5903 49.2567 84.7957 49.042 85.0383 48.874C85.2903 48.6967 85.5657 48.566 85.8643 48.482C86.163 48.398 86.471 48.356 86.7883 48.356ZM94.4906 48.356C94.9853 48.356 95.4286 48.4493 95.8206 48.636C96.222 48.8227 96.5626 49.1073 96.8426 49.49H96.9126L97.0806 48.496H98.0606V56.126C98.0606 56.8353 97.9393 57.428 97.6966 57.904C97.454 58.3893 97.0853 58.7533 96.5906 58.996C96.096 59.2387 95.466 59.36 94.7006 59.36C94.1593 59.36 93.66 59.318 93.2026 59.234C92.7546 59.1593 92.3533 59.0427 91.9986 58.884V57.75C92.2413 57.8713 92.5073 57.974 92.7966 58.058C93.086 58.1513 93.3986 58.2213 93.7346 58.268C94.0706 58.3147 94.416 58.338 94.7706 58.338C95.4146 58.338 95.9186 58.1467 96.2826 57.764C96.656 57.3907 96.8426 56.8773 96.8426 56.224V55.93C96.8426 55.818 96.8473 55.6593 96.8566 55.454C96.866 55.2393 96.8753 55.09 96.8846 55.006H96.8286C96.5673 55.3887 96.2406 55.6733 95.8486 55.86C95.466 56.0467 95.018 56.14 94.5046 56.14C93.534 56.14 92.7733 55.7993 92.2226 55.118C91.6813 54.4367 91.4106 53.4847 91.4106 52.262C91.4106 51.4593 91.532 50.7687 91.7746 50.19C92.0266 49.602 92.3813 49.1493 92.8386 48.832C93.296 48.5147 93.8466 48.356 94.4906 48.356ZM94.6586 49.392C94.2386 49.392 93.8793 49.504 93.5806 49.728C93.2913 49.952 93.0673 50.2787 92.9086 50.708C92.7593 51.1373 92.6846 51.66 92.6846 52.276C92.6846 53.2 92.8526 53.9093 93.1886 54.404C93.534 54.8893 94.0333 55.132 94.6866 55.132C95.0693 55.132 95.396 55.0853 95.6666 54.992C95.9373 54.8893 96.1613 54.7353 96.3386 54.53C96.516 54.3153 96.6466 54.0447 96.7306 53.718C96.8146 53.3913 96.8566 53.004 96.8566 52.556V52.262C96.8566 51.5807 96.7773 51.03 96.6186 50.61C96.4693 50.19 96.2313 49.882 95.9046 49.686C95.578 49.49 95.1626 49.392 94.6586 49.392ZM110.521 56L109.317 52.906H105.355L104.165 56H102.891L106.797 45.962H107.931L111.823 56H110.521ZM107.819 48.762C107.791 48.6873 107.744 48.552 107.679 48.356C107.613 48.16 107.548 47.9593 107.483 47.754C107.427 47.5393 107.38 47.376 107.343 47.264C107.296 47.4507 107.245 47.642 107.189 47.838C107.142 48.0247 107.091 48.1973 107.035 48.356C106.988 48.5147 106.946 48.65 106.909 48.762L105.775 51.786H108.939L107.819 48.762ZM116.592 48.356C117.516 48.356 118.258 48.678 118.818 49.322C119.387 49.966 119.672 50.9367 119.672 52.234C119.672 53.0833 119.541 53.802 119.28 54.39C119.028 54.9687 118.669 55.4073 118.202 55.706C117.745 55.9953 117.203 56.14 116.578 56.14C116.195 56.14 115.855 56.0887 115.556 55.986C115.257 55.8833 115.001 55.7527 114.786 55.594C114.581 55.426 114.403 55.244 114.254 55.048H114.17C114.189 55.2067 114.207 55.4073 114.226 55.65C114.245 55.8927 114.254 56.1027 114.254 56.28V59.36H113.022V48.496H114.03L114.198 49.518H114.254C114.403 49.3033 114.581 49.1073 114.786 48.93C115.001 48.7527 115.253 48.6127 115.542 48.51C115.841 48.4073 116.191 48.356 116.592 48.356ZM116.368 49.392C115.864 49.392 115.458 49.49 115.15 49.686C114.842 49.8727 114.618 50.1573 114.478 50.54C114.338 50.9227 114.263 51.408 114.254 51.996V52.234C114.254 52.85 114.319 53.3727 114.45 53.802C114.581 54.2313 114.8 54.558 115.108 54.782C115.425 55.006 115.855 55.118 116.396 55.118C116.853 55.118 117.227 54.992 117.516 54.74C117.815 54.488 118.034 54.1473 118.174 53.718C118.323 53.2793 118.398 52.78 118.398 52.22C118.398 51.3613 118.23 50.6753 117.894 50.162C117.567 49.6487 117.059 49.392 116.368 49.392ZM125.205 48.356C126.129 48.356 126.871 48.678 127.431 49.322C128.001 49.966 128.285 50.9367 128.285 52.234C128.285 53.0833 128.155 53.802 127.893 54.39C127.641 54.9687 127.282 55.4073 126.815 55.706C126.358 55.9953 125.817 56.14 125.191 56.14C124.809 56.14 124.468 56.0887 124.169 55.986C123.871 55.8833 123.614 55.7527 123.399 55.594C123.194 55.426 123.017 55.244 122.867 55.048H122.783C122.802 55.2067 122.821 55.4073 122.839 55.65C122.858 55.8927 122.867 56.1027 122.867 56.28V59.36H121.635V48.496H122.643L122.811 49.518H122.867C123.017 49.3033 123.194 49.1073 123.399 48.93C123.614 48.7527 123.866 48.6127 124.155 48.51C124.454 48.4073 124.804 48.356 125.205 48.356ZM124.981 49.392C124.477 49.392 124.071 49.49 123.763 49.686C123.455 49.8727 123.231 50.1573 123.091 50.54C122.951 50.9227 122.877 51.408 122.867 51.996V52.234C122.867 52.85 122.933 53.3727 123.063 53.802C123.194 54.2313 123.413 54.558 123.721 54.782C124.039 55.006 124.468 55.118 125.009 55.118C125.467 55.118 125.84 54.992 126.129 54.74C126.428 54.488 126.647 54.1473 126.787 53.718C126.937 53.2793 127.011 52.78 127.011 52.22C127.011 51.3613 126.843 50.6753 126.507 50.162C126.181 49.6487 125.672 49.392 124.981 49.392Z" fill="white"/>
</svg>
